<svg version="1.1" xmlns="http://www.w3.org/2000/svg" viewBox="0 0 1024 473" width="1024" height="473">
  <!-- svg-source:excalidraw -->
  
  <defs>
    <style>
      @font-face {
        font-family: "Virgil";
        src: url("https://excalidraw.com/Virgil.woff2");
      }
      @font-face {
        font-family: "Cascadia";
        src: url("https://excalidraw.com/Cascadia.woff2");
      }
    </style>
  </defs>
  <rect x="0" y="0" width="1024" height="473" fill="#ffffff"></rect><g stroke-linecap="round" transform="translate(217 153) rotate(0 18.5 18.5)"><path d="M17.16648474695214 -0.3986984573581118 C20.747539930957846 -0.9906929240368356, 25.169881044430348 0.373296815701464, 28.458863447857404 2.61752981075578 C31.74784585128446 4.861762805810097, 35.804299677652565 9.147196412061964, 36.90037916751448 13.066699512967784 C37.996458657376394 16.9862026138736, 36.902598901463485 22.265823907975665, 35.03534038702888 26.134548416190697 C33.16808187259428 30.003272924405728, 29.161461884217694 34.642383852067276, 25.69682808090686 36.27904656225796 C22.23219427759603 37.915709272448645, 17.84410227126561 37.250283149271894, 14.247537567163892 35.95452467733482 C10.650972863062176 34.65876620539774, 6.396848653289924 31.776437314116425, 4.117439856296565 28.504495730635494 C1.8380310593032063 25.232554147154563, 0.2576868624959922 20.374700979194714, 0.5710847852037375 16.32287517644923 C0.8844827079114828 12.271049373703747, 2.7560998369097214 6.822199598427913, 5.997827392543037 4.193540914162586 C9.239554948176353 1.564882229897259, 17.477516370019572 1.0559589247267813, 20.02145011900363 0.5509230708572659 C22.56538386798769 0.045887216987750334, 21.51190963335074 0.9067257068826091, 21.261429886447388 1.1633257909454926 M11.853479112966202 0.5918944818500407 C15.281576607299522 -0.9560971946686851, 22.00406135540887 -1.4882098780269712, 26.050478942755856 -0.06199973747676779 C30.096896530102843 1.3642104030734357, 34.47328151357766 5.2767207921044825, 36.13198463704812 9.149155325151261 C37.79068776051858 13.02158985819804, 37.212520353309266 19.167681203283287, 36.00269768357862 23.1726074608039 C34.79287501384797 27.17753371832451, 32.014964150756384 31.025235780744417, 28.873048618664235 33.17871287027494 C25.731133086572083 35.33218995980547, 20.801054305533462 36.07773231139492, 17.151204491025705 36.09346999798706 C13.501354676517947 36.1092076845792, 9.658829769379356 35.92065503659078, 6.973949731617688 33.27313898982779 C4.289069693856021 30.625622943064805, 1.8735563483159967 24.281671761703606, 1.0419242644557016 20.208373717409124 C0.21029218059540644 16.135075673114642, 0.08062344947745115 11.884400935495353, 1.984157228455917 8.833350724060894 C3.887691007434383 5.782300512626435, 10.94064543020232 3.0878898013308635, 12.463126938326496 1.9020724488023646 C13.985608446450673 0.7162550962738654, 11.159829519740825 1.7547077913864901, 11.119046277200978 1.7184466088898986" stroke="#000000" stroke-width="1" fill="none"></path></g><g stroke-linecap="round" transform="translate(466.5 156.5) rotate(0 18.5 18.5)"><path d="M17.133899266399066 0.4540220307677707 C20.80616010480504 0.26509567456471483, 25.912185012106992 1.609632404444517, 29.082504408587436 3.9548015909707743 C32.252823805067884 6.299970777497032, 35.06678074432142 10.482187475338577, 36.155815645281734 14.525037149925314 C37.24485054624205 18.56788682451205, 37.48959895419936 24.518760043451824, 35.61671381434932 28.21189963849119 C33.74382867449928 31.905039233530555, 28.81151292763157 35.30229205437733, 24.918504806181502 36.683874720161505 C21.025496684731436 38.06545738594568, 16.000276141893394 37.86873767689606, 12.25866508564891 36.50139563319622 C8.517054029404425 35.134053589496375, 4.642990001373368 31.848774842180163, 2.4688384687145906 28.47982245796244 C0.2946869360558133 25.11087007374472, -1.5072897835696049 20.326181972928104, -0.7862441103037519 16.28768132788989 C-0.06519843703789885 12.249180682851673, 3.247638433596443 7.0948898001013525, 6.795112508309709 4.248818587733139 C10.342586583022975 1.4027473753649247, 17.958224851330222 -0.08215077876227372, 20.49860033797584 -0.7887459463193949 C23.03897582462146 -1.495341113876516, 22.007574474936927 -0.3586175850137033, 22.037365428183413 0.00924758239041168 M13.615833467898227 1.824407093814063 C17.27627541832568 0.5886953265042649, 23.166632804320002 0.17158957740664182, 27.05098990198008 1.6174053943619136 C30.93534699964016 3.0632212113171855, 35.37345218624628 6.87115559787096, 36.9219760538587 10.499301995545693 C38.47049992147112 14.127448393220426, 37.964005384444064 19.319435439865458, 36.34213310765459 23.386283780410317 C34.720260830865115 27.453132120955175, 30.5027731224259 32.53266652453435, 27.19074239312185 34.90039203881485 C23.878711663817803 37.26811755309535, 20.44055241824153 38.399926292178236, 16.469948731830304 37.59263686609332 C12.499345045419075 36.78534744000841, 6.139737771276653 33.168432139929905, 3.367120274654484 30.05665548230536 C0.5945027780323144 26.944878824680814, -0.4305518877511423 23.019060214086203, -0.16575624790271348 18.921976920346044 C0.09903939194571532 14.824893626605885, 2.387886344206387 8.706902527646355, 4.955894113745057 5.474155719864404 C7.5239018832837266 2.241408912082454, 13.754593106502343 0.4077312395600764, 15.242290369329305 -0.4745039263456583 C16.729987632156266 -1.3567390922513929, 14.073406810567358 -0.405859185190236, 13.882077690706833 0.18074472442999578" stroke="#000000" stroke-width="1" fill="none"></path></g><g stroke-linecap="round"><g transform="translate(236 153) rotate(0 124.25302819147709 2.0088235114514816)"><path d="M0.6721437346190213 -0.5497862052172422 C42.24092362852146 0.15780569283912593, 207.83358436233053 2.417420723972221, 248.94017591699958 3.2316894866526127 M-0.4341195340454578 1.775972091704607 C41.059115818974874 2.7430310694004096, 206.5669338017578 4.468211317074796, 248.23892663158477 4.567433228120208" stroke="#000000" stroke-width="1" fill="none"></path></g></g><g stroke-linecap="round"><g transform="translate(236.39743610732262 190.03833656795325) rotate(0 124.47488691680132 2.304872293584026)"><path d="M-1.1025638926774264 0.538336567953229 C40.31062020355214 1.281178999009228, 206.34220679818338 2.931021778595925, 247.94703556299206 3.3536611914634475 M0.5194513343274592 -0.22464067921042452 C42.330061451656114 0.8096662260467768, 208.8958747952307 4.09890724906075, 250.05233772628006 4.834385266378499" stroke="#000000" stroke-width="1" fill="none"></path></g></g><g transform="translate(306 162) rotate(0 50.5 12.5)"><text x="0" y="18" font-family="Virgil, Segoe UI Emoji" font-size="20px" fill="#000000" text-anchor="start" style="white-space: pre;" direction="ltr">ad-channel</text></g><g stroke-linecap="round" transform="translate(364 10) rotate(0 149 25)"><path d="M0.10562542799556329 1.18204277383598 C111.03019800760622 0.8228798621710263, 223.56119924734946 -1.5121460442868506, 296.75328347714407 -0.7248651794976122 M-0.13029189302865898 0.006480413601363077 C86.72887243115937 -0.5558990762705749, 171.78044570938144 -0.01368002191801726, 298.3719306021677 0.37423003797495397 M297.80336111970246 0.044609157368540764 C299.4534553908743 9.503418990410864, 299.41470563644543 21.96109776571393, 297.6538476962596 48.88214614801109 M297.3353545209393 0.8980802604928613 C296.95711929211393 15.336722111329436, 298.38925061235204 30.939457933418453, 298.07660321798176 49.71393519733101 M299.26405583199363 50.90170296328047 C227.74798282744166 49.30729449914424, 156.73096923326645 48.429846739691065, 0.5454304376133449 51.40223003377348 M298.5056984455481 50.20425625285777 C213.09215955420882 49.32101131965568, 126.90740674139091 49.18369517842337, -0.22965439722014105 50.597971786570504 M1.3176592011004686 50.72729632072151 C-0.3573538945056498 31.774134802632034, 1.3635208322666585 12.500872500240803, -0.8225120287388563 0.521860746666789 M0.185260190628469 50.69466182682663 C0.1508774678222835 37.90424993261695, -0.12001512246206403 25.797768435440958, -0.5165472188964486 -0.25080335047096014" stroke="#000000" stroke-width="1" fill="none"></path></g><g transform="translate(333 108) rotate(0 187.5 10)"><text x="0" y="14" font-family="Virgil, Segoe UI Emoji" font-size="16px" fill="#000000" text-anchor="start" style="white-space: pre;" direction="ltr">Subscription: kubeflow-bandit-wouter-subscription</text></g><g stroke-linecap="round"><g transform="translate(432 156) rotate(0 -0.783709508962886 -46.85687225330622)"><path d="M0.23961936347186574 1.0662941504269836 C0.08032609115044811 -14.665114927602312, -0.8742263416448965 -78.60904179519665, -1.2185839297622125 -94.78003865703941 M-1.0937192000448706 0.5804946340620516 C-1.3281047999610451 -14.902659770486256, -1.5640243940303458 -77.22082849322508, -1.8070383813976922 -93.18487355329097" stroke="#000000" stroke-width="1" fill="none"></path></g><g transform="translate(432 156) rotate(0 -0.783709508962886 -46.85687225330622)"><path d="M10.481296290038342 -63.94500269656582 C6.055993696106073 -72.75133444381045, 1.1667758382044493 -81.24234958712532, -3.7473981843143385 -92.29292014271022 M9.36543183713239 -65.83800891981973 C6.722283524583147 -73.16466664784689, 3.5025977836428464 -80.61984020003867, -1.5142781871184388 -93.3575354994461" stroke="#000000" stroke-width="1" fill="none"></path></g><g transform="translate(432 156) rotate(0 -0.783709508962886 -46.85687225330622)"><path d="M-10.03909901847931 -63.762304125125894 C-8.757125041522958 -72.6604196757036, -7.939662510801822 -81.20224292183474, -3.7473981843143385 -92.29292014271022 M-11.154963471385264 -65.6553103483798 C-8.172231553142598 -73.12587131697823, -5.766166639305991 -80.6311324329061, -1.5142781871184388 -93.3575354994461" stroke="#000000" stroke-width="1" fill="none"></path></g></g><g stroke-linecap="round" transform="translate(750 274) rotate(0 37.5 15)"><path d="M44.930170585934064 -0.08258396155844316 C52.77369406958532 0.5097457968127644, 61.90273842858353 3.704233659665664, 66.9015581311852 6.150511068622043 C71.90037783378686 8.596788477578421, 75.1971649125299 11.546715411879163, 74.92308880154405 14.595080492179829 C74.64901269055821 17.643445572480495, 70.43956780923406 21.948542552875157, 65.25710146527013 24.44070155042604 C60.07463512130619 26.932860547976926, 51.73582989796962 29.0339349818792, 43.82829073776041 29.548034477485142 C35.9207515775512 30.062133973091086, 24.901704989622317 28.981298274945793, 17.811866504014848 27.525298524061704 C10.722028018407379 26.069298773177614, 3.715788159920857 23.858179610957027, 1.2892598241155895 20.81203597218061 C-1.137268511689678 17.765892333404192, 0.3768012001783241 12.330922879969094, 3.2526964891832435 9.248436691403198 C6.128591778188163 6.165950502837301, 11.416919923523952 3.8431327538183844, 18.544631558145106 2.317118840785227 C25.67234319276626 0.7911049277520694, 41.036825643328555 0.14458540498384012, 46.01896629691017 0.09235321320425172 C51.00110695049179 0.040121021424663304, 48.340070403533986 1.6311344785012303, 48.437475479634806 2.0037256901076965 M36.252881888395926 1.1492801184185542 C43.61037134934094 0.9077523943379159, 54.18149524696652 2.313368140313417, 60.7835680579498 4.437042259192202 C67.38564086893308 6.560716378070987, 74.45317229815332 10.908151346793396, 75.86531875429563 13.891324831691264 C77.27746521043794 16.874498316589133, 73.45359505337825 20.006091031315954, 69.25644679480362 22.33608316857941 C65.059298536229 24.666075305842867, 58.259568956514556 26.697183874932772, 50.682429202847835 27.871277655271996 C43.105289449181114 29.04537143561122, 31.52352407203967 30.23147804786586, 23.793608272803297 29.380645850614748 C16.063692473566924 28.529813653363636, 8.381374785953518 25.623505085748068, 4.302934407429596 22.766284471765317 C0.22449402890567427 19.909063857782566, -2.2148738855932564 15.42228274736803, -0.6770339983402351 12.237322166718252 C0.8608058889127861 9.052361586068475, 7.390129780838998 5.925507071050399, 13.529973730947724 3.6565209878666494 C19.66981768105645 1.3875349046828993, 32.37987978696604 -0.6147143430825723, 36.16202970231212 -1.3765943323842489 C39.94417961765819 -2.1384743216859254, 36.20583020174329 -1.5019784420878781, 36.22287322302419 -0.91475894794341" stroke="#000000" stroke-width="1" fill="none"></path></g><g stroke-linecap="round" transform="translate(749.5 389) rotate(0 37.5 15)"><path d="M23.023936530247106 1.3459788710264036 C29.90304728761543 0.15499372227608, 41.587494960074565 -0.1599933570890858, 49.34888699389596 0.7687499101284221 C57.110279027717354 1.69749317734593, 65.45124647016064 4.281596994465597, 69.59228873317545 6.918438474331451 C73.73333099619026 9.555279954197303, 75.26745785767048 13.52951610828678, 74.19514057198484 16.58979878932354 C73.1228232862992 19.650081470360306, 69.05842251907927 22.986634044127925, 63.158385019061555 25.28013456055203 C57.25834751904384 27.57363507697613, 46.70926389937255 30.065894228180937, 38.79491557187854 30.350801887868165 C30.880567244384533 30.635709547555393, 21.978549696109106 29.0412015168866, 15.672295054097507 26.989580518675407 C9.366040412085908 24.937959520464215, 2.9711400153548904 21.322343410215936, 0.957387719808942 18.041075898601022 C-1.0563645757370064 14.759808386986109, -0.37721376629956005 10.25966442779566, 3.5897812808218177 7.301975448985924 C7.556776327943195 4.344286470176187, 20.71072995926607 1.2279211089564916, 24.75935800253721 0.2949420257426034 C28.807986045808345 -0.6380370574712848, 27.6118935225248 1.3855397742943663, 27.88154954044863 1.7041009497025943 M54.21105620295277 3.1121816179414346 C61.28847516150635 3.968720960615902, 68.30863607452099 4.914309144427595, 71.7042129738657 7.760366204683358 C75.0997898732104 10.60642326493912, 76.82490609552524 16.98082293678407, 74.58451759902097 20.188523979476017 C72.3441291025167 23.396225022167965, 65.09260889714363 25.472847897352715, 58.261881994840124 27.006572460835045 C51.43115509253662 28.540297024317375, 41.39315577142781 29.528755530367434, 33.60015618519995 29.39087136037 C25.80715659897209 29.252987190372565, 17.28673733013085 28.547762088263617, 11.503884477472965 26.179267440850445 C5.72103162481508 23.810772793437273, -0.6287222166814044 18.467406095698305, -1.0969609307473647 15.179903475890962 C-1.565199644813325 11.89240085608362, 3.680796440469674 8.976109031062217, 8.694452193077204 6.4542517220063935 C13.708107945684734 3.9323944129505706, 21.322312009519354 0.9342263290343924, 28.984973584897816 0.04875962155602487 C36.64763516027628 -0.8367070859223427, 50.3845166142101 1.0838598063366165, 54.67042164534797 1.1414514771361883 C58.956326676485844 1.1990431479357602, 55.08031394969262 0.21714713459134347, 54.700403771725036 0.3943096463534559" stroke="#000000" stroke-width="1" fill="none"></path></g><g stroke-linecap="round"><g transform="translate(749.9521882068366 289.98671767279507) rotate(0 -0.6512165097892648 57.867855964154046)"><path d="M0.952188206836581 0.6769322086125611 C0.7534528776630697 19.928893430307514, -1.057250732369751 95.47507656104865, -1.408762779682911 114.44207646377387 M-0.007051713913679203 -0.013282327204942712 C-0.327846467010683 19.49822668358684, -1.97443667229268 96.48257054135206, -2.2546212264150745 115.74899425551298" stroke="#000000" stroke-width="1" fill="none"></path></g></g><g stroke-linecap="round"><g transform="translate(824.0185943018646 292.59685263946653) rotate(1.3796079100979761 0.5916901631117071 56.63000081423672)"><path d="M1.018594301864505 -0.2344546984881163 C1.170944343941911 18.915875196804603, 1.035085072306314 95.49876918221513, 1.0186549782753216 114.66314898900687 M0.09421758100390432 -1.4031473605334759 C0.17015710777293025 17.385198083942132, 0.523020873380223 93.67782282086709, 0.6151653867215146 112.67707509517669" stroke="#000000" stroke-width="1" fill="none"></path></g></g><g transform="translate(684 431) rotate(0 158.5 10)"><text x="0" y="14" font-family="Virgil, Segoe UI Emoji" font-size="16px" fill="#000000" text-anchor="start" style="white-space: pre;" direction="ltr">deployment: kubeflow-bandit-wouter-redis</text></g><g stroke-linecap="round" transform="translate(10 343) rotate(0 149 25)"><path d="M-0.9925419815129406 -0.7348856111593238 C101.51653662120619 1.85643134399298, 204.73726603856076 1.4168050335307676, 298.02119993123773 0.9027719777421243 M0.15855818079112804 0.20118096854230721 C64.98584296100185 0.22443947905056505, 130.40826635516558 -0.4953880952385541, 297.3801421345127 0.654087063069969 M297.4509451072663 0.5712728518992662 C297.554344241973 15.84927726443857, 296.68023980176076 29.662683974951506, 298.5679506342858 49.54506761021912 M298.90966734383255 0.552354141138494 C298.237416268792 14.85596084035933, 297.1297006323002 29.211003963835537, 297.3589508542791 49.9166869064793 M299.10616930770266 49.237183315667394 C197.48515204574744 52.765789085568585, 95.5207499989648 50.59455232695421, -0.6116024056223757 51.374486202299856 M298.04942177677816 50.43841805980386 C182.90745622257984 47.92115459065706, 68.62414090120663 48.18009469436248, 0.14429120463383233 49.53015327972138 M-1.9977993089705706 50.22955668158829 C0.9513592929579318 39.49880522210151, 1.6398349613882601 30.52672266215086, -0.9860222060233355 -0.2779069524258375 M-0.35211977269500494 50.82645223941654 C-0.46696779085323215 32.671534452587366, -0.07328915549442172 14.049193226732314, -0.5334190716966987 -0.6720098713412881" stroke="#000000" stroke-width="1" fill="none"></path></g><g transform="translate(26 360) rotate(0 136 10)"><text x="136" y="14" font-family="Virgil, Segoe UI Emoji" font-size="16px" fill="#000000" text-anchor="middle" style="white-space: pre;" direction="ltr">deployment: kubeflow-bandit-wouter</text></g><g stroke-linecap="round" transform="translate(679 251) rotate(0 167.5 106)"><path d="M-0.10324251728365569 0.25555220065555717 C120.70259006322736 -0.49424564222168876, 239.62930753804838 0.3106665401558879, 334.50174264840945 -1.3484266303855401 M0.5463946390392072 0.4349650615731589 C104.01231361455957 0.042015942297599265, 209.07942952140397 0.32886333928515665, 334.40268467458 -0.23766535329912972 M335.12271657065696 -0.32261462117050516 C333.4568676162418 79.93808719701488, 333.3599290759099 163.19176231091942, 333.8126604568145 212.29526769157596 M335.038384242537 -0.37610289792810864 C335.21058414162445 74.52023071803677, 333.7428735110578 146.88151528955393, 334.1616139158151 212.1960063071891 M335.46467368655044 212.12573147441398 C236.1086560995511 213.10421978093098, 136.05247182043595 212.02281913614485, -0.39902597607991835 211.1615246462568 M334.8032029826674 211.7419203368758 C259.44953974831105 213.4898302788742, 182.8500559767728 213.71034560665552, 0.5391024764371402 211.4121040971973 M-0.3912670280625619 212.87688199207454 C1.234587140238839 164.04873528994347, 0.8367525808532773 115.95293942772098, 1.5586707399965725 0.9550903745551981 M-0.1758697825154584 212.56344339630806 C-0.316739660305071 153.4113420145947, -0.10347655523406278 92.73161604563577, 0.17649446564434357 -0.3284256818915386" stroke="#000000" stroke-width="1" fill="none"></path></g><g stroke-linecap="round"><g transform="translate(313 367.929304737537) rotate(0 180.10529207628218 2.255512903317083)"><path d="M-0.8961233485490083 0.8298421908169986 C58.97704143037397 1.1557746102608841, 298.6702731678883 2.300532275039753, 358.96574667789037 2.691222613795162 M0.8342731641232968 0.219905395656824 C61.08815970999498 0.6962501957960525, 301.15520544620847 4.136539069090089, 361.10670750111336 4.291120410977364" stroke="#000000" stroke-width="1" fill="none"></path></g><g transform="translate(313 367.929304737537) rotate(0 180.10529207628218 2.255512903317083)"><path d="M28.72921940058936 -11.100842387708859 C19.77689988261784 -5.3217821744855165, 12.751902075933502 -3.5406776940877114, -0.9888323850929737 1.6719391770660879 M26.401527311918333 -9.125654626931087 C18.138480109366007 -4.959999528607909, 7.661701158981845 -3.132819132146108, -1.2013008574023842 1.6063123295083643" stroke="#000000" stroke-width="1" fill="none"></path></g><g transform="translate(313 367.929304737537) rotate(0 180.10529207628218 2.255512903317083)"><path d="M28.625511797675944 9.420104157685614 C19.57614491405868 9.510920229547242, 12.579897948883046 5.603006111880062, -0.9888323850929737 1.6719391770660879 M26.297819709004916 11.395291918463386 C18.07478269720457 8.518167027120107, 7.6335942424435075 3.3029451532728213, -1.2013008574023842 1.6063123295083643" stroke="#000000" stroke-width="1" fill="none"></path></g><g transform="translate(313 367.929304737537) rotate(0 180.10529207628218 2.255512903317083)"><path d="M334.2054621666034 12.47831635912367 C340.80067194438146 13.102223194584015, 349.4465307515313 9.306051002255744, 361.0139984645694 5.133217397226454 M331.8777700779324 14.453504119901442 C343.01791591381425 11.509202911824207, 351.9399971170059 6.432305702438928, 360.80152999226 5.06759054966873" stroke="#000000" stroke-width="1" fill="none"></path></g><g transform="translate(313 367.929304737537) rotate(0 180.10529207628218 2.255512903317083)"><path d="M334.39493962168507 -8.04201747538924 C341.06341504719495 -1.7306768633623966, 349.65674505098343 0.16199968063851955, 361.0139984645694 5.133217397226454 M332.06724753301404 -6.06682971461147 C343.13794871261854 -1.968248816598793, 351.99500482269923 -0.002954026506976959, 360.80152999226 5.06759054966873" stroke="#000000" stroke-width="1" fill="none"></path></g></g><g transform="translate(356 385) rotate(0 144.5 10)"><text x="0" y="14" font-family="Virgil, Segoe UI Emoji" font-size="16px" fill="#000000" text-anchor="start" style="white-space: pre;" direction="ltr">service: kubeflow-bandit-wouter-redis</text></g></svg>